# MagicaVoxel @ Ephtracy

# group
o 

# material
mtllib queen_thanks.mtl
usemtl palette

# normals
vn -1 0 0
vn 1 0 0
vn 0 0 1
vn 0 0 -1
vn 0 -1 0
vn 0 1 0

# texcoords
vt 0.0566406 0.5
vt 0.958984 0.5

# verts
v 0 -0.1 0
v 0 -0.1 -0.2
v 0 0 0
v 0 0 -0.2
v 0.4 -0.1 -0.3
v 0.4 -0.1 -0.6
v 0.4 0 -0.3
v 0.4 0 -0.6
v 0.7 -0.1 -0.9
v 0.7 -0.1 -2.3
v 0.7 0 -0.9
v 0.7 0 -2.3
v 0.8 -0.1 -0.8
v 0.8 -0.1 -0.9
v 0.8 -0.1 -2.3
v 0.8 -0.1 -2.4
v 0.8 0 -0.8
v 0.8 0 -0.9
v 0.8 0 -2.3
v 0.8 0 -2.4
v 0.9 -0.1 -0.7
v 0.9 -0.1 -0.8
v 0.9 -0.1 -2.4
v 0.9 -0.1 -2.5
v 0.9 0 -0.7
v 0.9 0 -0.8
v 0.9 0 -2.4
v 0.9 0 -2.5
v 1.5 0 -1.6
v 1.5 0 -2
v 1.5 0.1 -1.6
v 1.5 0.1 -2
v 1.6 0 -1.5
v 1.6 0 -1.6
v 1.6 0 -2
v 1.6 0 -2.1
v 1.6 0.1 -1.5
v 1.6 0.1 -1.6
v 1.6 0.1 -2
v 1.6 0.1 -2.1
v 1.7 0 -1.4
v 1.7 0 -1.5
v 1.7 0 -2.1
v 1.7 0 -2.2
v 1.7 0.1 -1.4
v 1.7 0.1 -1.5
v 1.7 0.1 -2.1
v 1.7 0.1 -2.2
v 1.8 0 -1.3
v 1.8 0 -1.4
v 1.8 0.1 -1.3
v 1.8 0.1 -1.4
v 1.9 0 -1.2
v 1.9 0 -1.3
v 1.9 0.1 -1.2
v 1.9 0.1 -1.3
v 2 0 -1.1
v 2 0 -1.2
v 2 0.1 -1.1
v 2 0.1 -1.2
v 2.1 0 -1
v 2.1 0 -1.1
v 2.1 0.1 -1
v 2.1 0.1 -1.1
v 2.2 0 -2
v 2.2 0 -2.1
v 2.2 0.1 -2
v 2.2 0.1 -2.1
v 2.3 0 -2.1
v 2.3 0 -2.2
v 2.3 0.1 -2.1
v 2.3 0.1 -2.2
v 0.3 -0.1 0
v 0.3 -0.1 -0.2
v 0.3 0 0
v 0.3 0 -0.2
v 0.8 -0.1 -0.3
v 0.8 -0.1 -0.6
v 0.8 0 -0.3
v 0.8 0 -0.6
v 2 0 -2.1
v 2 0 -2.2
v 2 0.1 -2.1
v 2 0.1 -2.2
v 2.1 0 -2
v 2.1 0 -2.1
v 2.1 0.1 -2
v 2.1 0.1 -2.1
v 2.2 0 -1
v 2.2 0 -1.1
v 2.2 0.1 -1
v 2.2 0.1 -1.1
v 2.3 0 -1.1
v 2.3 0 -1.2
v 2.3 0.1 -1.1
v 2.3 0.1 -1.2
v 2.4 0 -1.2
v 2.4 0 -1.3
v 2.4 0.1 -1.2
v 2.4 0.1 -1.3
v 2.5 0 -1.3
v 2.5 0 -1.4
v 2.5 0.1 -1.3
v 2.5 0.1 -1.4
v 2.6 0 -1.4
v 2.6 0 -1.5
v 2.6 0 -2.1
v 2.6 0 -2.2
v 2.6 0.1 -1.4
v 2.6 0.1 -1.5
v 2.6 0.1 -2.1
v 2.6 0.1 -2.2
v 2.7 0 -1.5
v 2.7 0 -1.6
v 2.7 0 -2
v 2.7 0 -2.1
v 2.7 0.1 -1.5
v 2.7 0.1 -1.6
v 2.7 0.1 -2
v 2.7 0.1 -2.1
v 2.8 0 -1.6
v 2.8 0 -2
v 2.8 0.1 -1.6
v 2.8 0.1 -2
v 3.3 -0.1 -0.7
v 3.3 -0.1 -0.8
v 3.3 -0.1 -2.4
v 3.3 -0.1 -2.5
v 3.3 0 -0.7
v 3.3 0 -0.8
v 3.3 0 -2.4
v 3.3 0 -2.5
v 3.4 -0.1 -0.8
v 3.4 -0.1 -0.9
v 3.4 -0.1 -2.3
v 3.4 -0.1 -2.4
v 3.4 0 -0.8
v 3.4 0 -0.9
v 3.4 0 -2.3
v 3.4 0 -2.4
v 3.5 -0.1 -0.9
v 3.5 -0.1 -2.3
v 3.5 0 -0.9
v 3.5 0 -2.3
v 0 -0.1 0
v 0 0 0
v 0.3 -0.1 0
v 0.3 0 0
v 0.4 -0.1 -0.3
v 0.4 0 -0.3
v 0.8 -0.1 -0.3
v 0.8 0 -0.3
v 0.9 -0.1 -0.7
v 0.9 0 -0.7
v 3.3 -0.1 -0.7
v 3.3 0 -0.7
v 0.8 -0.1 -0.8
v 0.8 0 -0.8
v 0.9 -0.1 -0.8
v 0.9 0 -0.8
v 3.3 -0.1 -0.8
v 3.3 0 -0.8
v 3.4 -0.1 -0.8
v 3.4 0 -0.8
v 0.7 -0.1 -0.9
v 0.7 0 -0.9
v 0.8 -0.1 -0.9
v 0.8 0 -0.9
v 3.4 -0.1 -0.9
v 3.4 0 -0.9
v 3.5 -0.1 -0.9
v 3.5 0 -0.9
v 2.1 0 -1
v 2.1 0.1 -1
v 2.2 0 -1
v 2.2 0.1 -1
v 2 0 -1.1
v 2 0.1 -1.1
v 2.1 0 -1.1
v 2.1 0.1 -1.1
v 2.2 0 -1.1
v 2.2 0.1 -1.1
v 2.3 0 -1.1
v 2.3 0.1 -1.1
v 1.9 0 -1.2
v 1.9 0.1 -1.2
v 2 0 -1.2
v 2 0.1 -1.2
v 2.3 0 -1.2
v 2.3 0.1 -1.2
v 2.4 0 -1.2
v 2.4 0.1 -1.2
v 1.8 0 -1.3
v 1.8 0.1 -1.3
v 1.9 0 -1.3
v 1.9 0.1 -1.3
v 2.4 0 -1.3
v 2.4 0.1 -1.3
v 2.5 0 -1.3
v 2.5 0.1 -1.3
v 1.7 0 -1.4
v 1.7 0.1 -1.4
v 1.8 0 -1.4
v 1.8 0.1 -1.4
v 2.5 0 -1.4
v 2.5 0.1 -1.4
v 2.6 0 -1.4
v 2.6 0.1 -1.4
v 1.6 0 -1.5
v 1.6 0.1 -1.5
v 1.7 0 -1.5
v 1.7 0.1 -1.5
v 2.6 0 -1.5
v 2.6 0.1 -1.5
v 2.7 0 -1.5
v 2.7 0.1 -1.5
v 1.5 0 -1.6
v 1.5 0.1 -1.6
v 1.6 0 -1.6
v 1.6 0.1 -1.6
v 2.7 0 -1.6
v 2.7 0.1 -1.6
v 2.8 0 -1.6
v 2.8 0.1 -1.6
v 0 -0.1 -0.2
v 0 0 -0.2
v 0.3 -0.1 -0.2
v 0.3 0 -0.2
v 0.4 -0.1 -0.6
v 0.4 0 -0.6
v 0.8 -0.1 -0.6
v 0.8 0 -0.6
v 1.5 0 -2
v 1.5 0.1 -2
v 1.6 0 -2
v 1.6 0.1 -2
v 2.1 0 -2
v 2.1 0.1 -2
v 2.2 0 -2
v 2.2 0.1 -2
v 2.7 0 -2
v 2.7 0.1 -2
v 2.8 0 -2
v 2.8 0.1 -2
v 1.6 0 -2.1
v 1.6 0.1 -2.1
v 1.7 0 -2.1
v 1.7 0.1 -2.1
v 2 0 -2.1
v 2 0.1 -2.1
v 2.1 0 -2.1
v 2.1 0.1 -2.1
v 2.2 0 -2.1
v 2.2 0.1 -2.1
v 2.3 0 -2.1
v 2.3 0.1 -2.1
v 2.6 0 -2.1
v 2.6 0.1 -2.1
v 2.7 0 -2.1
v 2.7 0.1 -2.1
v 1.7 0 -2.2
v 1.7 0.1 -2.2
v 2 0 -2.2
v 2 0.1 -2.2
v 2.3 0 -2.2
v 2.3 0.1 -2.2
v 2.6 0 -2.2
v 2.6 0.1 -2.2
v 0.7 -0.1 -2.3
v 0.7 0 -2.3
v 0.8 -0.1 -2.3
v 0.8 0 -2.3
v 3.4 -0.1 -2.3
v 3.4 0 -2.3
v 3.5 -0.1 -2.3
v 3.5 0 -2.3
v 0.8 -0.1 -2.4
v 0.8 0 -2.4
v 0.9 -0.1 -2.4
v 0.9 0 -2.4
v 3.3 -0.1 -2.4
v 3.3 0 -2.4
v 3.4 -0.1 -2.4
v 3.4 0 -2.4
v 0.9 -0.1 -2.5
v 0.9 0 -2.5
v 3.3 -0.1 -2.5
v 3.3 0 -2.5
v 0 -0.1 0
v 0.3 -0.1 0
v 0 -0.1 -0.2
v 0.3 -0.1 -0.2
v 0.4 -0.1 -0.3
v 0.8 -0.1 -0.3
v 0.4 -0.1 -0.6
v 0.8 -0.1 -0.6
v 0.9 -0.1 -0.7
v 3.3 -0.1 -0.7
v 0.8 -0.1 -0.8
v 0.9 -0.1 -0.8
v 3.3 -0.1 -0.8
v 3.4 -0.1 -0.8
v 0.7 -0.1 -0.9
v 0.8 -0.1 -0.9
v 3.4 -0.1 -0.9
v 3.5 -0.1 -0.9
v 0.7 -0.1 -2.3
v 0.8 -0.1 -2.3
v 3.4 -0.1 -2.3
v 3.5 -0.1 -2.3
v 0.8 -0.1 -2.4
v 0.9 -0.1 -2.4
v 3.3 -0.1 -2.4
v 3.4 -0.1 -2.4
v 0.9 -0.1 -2.5
v 3.3 -0.1 -2.5
v 0 0 0
v 0.3 0 0
v 0 0 -0.2
v 0.3 0 -0.2
v 0.4 0 -0.3
v 0.8 0 -0.3
v 0.4 0 -0.6
v 0.8 0 -0.6
v 0.9 0 -0.7
v 3.3 0 -0.7
v 0.8 0 -0.8
v 0.9 0 -0.8
v 3.3 0 -0.8
v 3.4 0 -0.8
v 0.7 0 -0.9
v 0.8 0 -0.9
v 3.4 0 -0.9
v 3.5 0 -0.9
v 2.1 0 -1
v 2.2 0 -1
v 2 0 -1.1
v 2.1 0 -1.1
v 2.2 0 -1.1
v 2.3 0 -1.1
v 1.9 0 -1.2
v 2 0 -1.2
v 2.3 0 -1.2
v 2.4 0 -1.2
v 1.8 0 -1.3
v 1.9 0 -1.3
v 2.4 0 -1.3
v 2.5 0 -1.3
v 1.7 0 -1.4
v 1.8 0 -1.4
v 2.5 0 -1.4
v 2.6 0 -1.4
v 1.6 0 -1.5
v 1.7 0 -1.5
v 2.6 0 -1.5
v 2.7 0 -1.5
v 1.5 0 -1.6
v 1.6 0 -1.6
v 2.7 0 -1.6
v 2.8 0 -1.6
v 1.5 0 -2
v 1.6 0 -2
v 2.1 0 -2
v 2.2 0 -2
v 2.7 0 -2
v 2.8 0 -2
v 1.6 0 -2.1
v 1.7 0 -2.1
v 2 0 -2.1
v 2.1 0 -2.1
v 2.2 0 -2.1
v 2.3 0 -2.1
v 2.6 0 -2.1
v 2.7 0 -2.1
v 1.7 0 -2.2
v 2 0 -2.2
v 2.3 0 -2.2
v 2.6 0 -2.2
v 0.7 0 -2.3
v 0.8 0 -2.3
v 3.4 0 -2.3
v 3.5 0 -2.3
v 0.8 0 -2.4
v 0.9 0 -2.4
v 3.3 0 -2.4
v 3.4 0 -2.4
v 0.9 0 -2.5
v 3.3 0 -2.5
v 2.1 0.1 -1
v 2.2 0.1 -1
v 2 0.1 -1.1
v 2.1 0.1 -1.1
v 2.2 0.1 -1.1
v 2.3 0.1 -1.1
v 1.9 0.1 -1.2
v 2 0.1 -1.2
v 2.3 0.1 -1.2
v 2.4 0.1 -1.2
v 1.8 0.1 -1.3
v 1.9 0.1 -1.3
v 2.4 0.1 -1.3
v 2.5 0.1 -1.3
v 1.7 0.1 -1.4
v 1.8 0.1 -1.4
v 2.5 0.1 -1.4
v 2.6 0.1 -1.4
v 1.6 0.1 -1.5
v 1.7 0.1 -1.5
v 2.6 0.1 -1.5
v 2.7 0.1 -1.5
v 1.5 0.1 -1.6
v 1.6 0.1 -1.6
v 2.7 0.1 -1.6
v 2.8 0.1 -1.6
v 1.5 0.1 -2
v 1.6 0.1 -2
v 2.1 0.1 -2
v 2.2 0.1 -2
v 2.7 0.1 -2
v 2.8 0.1 -2
v 1.6 0.1 -2.1
v 1.7 0.1 -2.1
v 2 0.1 -2.1
v 2.1 0.1 -2.1
v 2.2 0.1 -2.1
v 2.3 0.1 -2.1
v 2.6 0.1 -2.1
v 2.7 0.1 -2.1
v 1.7 0.1 -2.2
v 2 0.1 -2.2
v 2.3 0.1 -2.2
v 2.6 0.1 -2.2

# faces
f 3/2/1 2/2/1 1/2/1
f 4/2/1 2/2/1 3/2/1
f 7/2/1 6/2/1 5/2/1
f 8/2/1 6/2/1 7/2/1
f 11/2/1 10/2/1 9/2/1
f 12/2/1 10/2/1 11/2/1
f 17/2/1 14/2/1 13/2/1
f 18/2/1 14/2/1 17/2/1
f 19/2/1 16/2/1 15/2/1
f 20/2/1 16/2/1 19/2/1
f 25/2/1 22/2/1 21/2/1
f 26/2/1 22/2/1 25/2/1
f 27/2/1 24/2/1 23/2/1
f 28/2/1 24/2/1 27/2/1
f 31/1/1 30/1/1 29/1/1
f 32/1/1 30/1/1 31/1/1
f 37/1/1 34/1/1 33/1/1
f 38/1/1 34/1/1 37/1/1
f 39/1/1 36/1/1 35/1/1
f 40/1/1 36/1/1 39/1/1
f 45/1/1 42/1/1 41/1/1
f 46/1/1 42/1/1 45/1/1
f 47/1/1 44/1/1 43/1/1
f 48/1/1 44/1/1 47/1/1
f 51/1/1 50/1/1 49/1/1
f 52/1/1 50/1/1 51/1/1
f 55/1/1 54/1/1 53/1/1
f 56/1/1 54/1/1 55/1/1
f 59/1/1 58/1/1 57/1/1
f 60/1/1 58/1/1 59/1/1
f 63/1/1 62/1/1 61/1/1
f 64/1/1 62/1/1 63/1/1
f 67/1/1 66/1/1 65/1/1
f 68/1/1 66/1/1 67/1/1
f 71/1/1 70/1/1 69/1/1
f 72/1/1 70/1/1 71/1/1
f 73/2/2 74/2/2 75/2/2
f 75/2/2 74/2/2 76/2/2
f 77/2/2 78/2/2 79/2/2
f 79/2/2 78/2/2 80/2/2
f 81/1/2 82/1/2 83/1/2
f 83/1/2 82/1/2 84/1/2
f 85/1/2 86/1/2 87/1/2
f 87/1/2 86/1/2 88/1/2
f 89/1/2 90/1/2 91/1/2
f 91/1/2 90/1/2 92/1/2
f 93/1/2 94/1/2 95/1/2
f 95/1/2 94/1/2 96/1/2
f 97/1/2 98/1/2 99/1/2
f 99/1/2 98/1/2 100/1/2
f 101/1/2 102/1/2 103/1/2
f 103/1/2 102/1/2 104/1/2
f 105/1/2 106/1/2 109/1/2
f 109/1/2 106/1/2 110/1/2
f 107/1/2 108/1/2 111/1/2
f 111/1/2 108/1/2 112/1/2
f 113/1/2 114/1/2 117/1/2
f 117/1/2 114/1/2 118/1/2
f 115/1/2 116/1/2 119/1/2
f 119/1/2 116/1/2 120/1/2
f 121/1/2 122/1/2 123/1/2
f 123/1/2 122/1/2 124/1/2
f 125/2/2 126/2/2 129/2/2
f 129/2/2 126/2/2 130/2/2
f 127/2/2 128/2/2 131/2/2
f 131/2/2 128/2/2 132/2/2
f 133/2/2 134/2/2 137/2/2
f 137/2/2 134/2/2 138/2/2
f 135/2/2 136/2/2 139/2/2
f 139/2/2 136/2/2 140/2/2
f 141/2/2 142/2/2 143/2/2
f 143/2/2 142/2/2 144/2/2
f 147/2/3 146/2/3 145/2/3
f 148/2/3 146/2/3 147/2/3
f 151/2/3 150/2/3 149/2/3
f 152/2/3 150/2/3 151/2/3
f 155/2/3 154/2/3 153/2/3
f 156/2/3 154/2/3 155/2/3
f 159/2/3 158/2/3 157/2/3
f 160/2/3 158/2/3 159/2/3
f 163/2/3 162/2/3 161/2/3
f 164/2/3 162/2/3 163/2/3
f 167/2/3 166/2/3 165/2/3
f 168/2/3 166/2/3 167/2/3
f 171/2/3 170/2/3 169/2/3
f 172/2/3 170/2/3 171/2/3
f 175/1/3 174/1/3 173/1/3
f 176/1/3 174/1/3 175/1/3
f 179/1/3 178/1/3 177/1/3
f 180/1/3 178/1/3 179/1/3
f 183/1/3 182/1/3 181/1/3
f 184/1/3 182/1/3 183/1/3
f 187/1/3 186/1/3 185/1/3
f 188/1/3 186/1/3 187/1/3
f 191/1/3 190/1/3 189/1/3
f 192/1/3 190/1/3 191/1/3
f 195/1/3 194/1/3 193/1/3
f 196/1/3 194/1/3 195/1/3
f 199/1/3 198/1/3 197/1/3
f 200/1/3 198/1/3 199/1/3
f 203/1/3 202/1/3 201/1/3
f 204/1/3 202/1/3 203/1/3
f 207/1/3 206/1/3 205/1/3
f 208/1/3 206/1/3 207/1/3
f 211/1/3 210/1/3 209/1/3
f 212/1/3 210/1/3 211/1/3
f 215/1/3 214/1/3 213/1/3
f 216/1/3 214/1/3 215/1/3
f 219/1/3 218/1/3 217/1/3
f 220/1/3 218/1/3 219/1/3
f 223/1/3 222/1/3 221/1/3
f 224/1/3 222/1/3 223/1/3
f 225/2/4 226/2/4 227/2/4
f 227/2/4 226/2/4 228/2/4
f 229/2/4 230/2/4 231/2/4
f 231/2/4 230/2/4 232/2/4
f 233/1/4 234/1/4 235/1/4
f 235/1/4 234/1/4 236/1/4
f 237/1/4 238/1/4 239/1/4
f 239/1/4 238/1/4 240/1/4
f 241/1/4 242/1/4 243/1/4
f 243/1/4 242/1/4 244/1/4
f 245/1/4 246/1/4 247/1/4
f 247/1/4 246/1/4 248/1/4
f 249/1/4 250/1/4 251/1/4
f 251/1/4 250/1/4 252/1/4
f 253/1/4 254/1/4 255/1/4
f 255/1/4 254/1/4 256/1/4
f 257/1/4 258/1/4 259/1/4
f 259/1/4 258/1/4 260/1/4
f 261/1/4 262/1/4 263/1/4
f 263/1/4 262/1/4 264/1/4
f 265/1/4 266/1/4 267/1/4
f 267/1/4 266/1/4 268/1/4
f 269/2/4 270/2/4 271/2/4
f 271/2/4 270/2/4 272/2/4
f 273/2/4 274/2/4 275/2/4
f 275/2/4 274/2/4 276/2/4
f 277/2/4 278/2/4 279/2/4
f 279/2/4 278/2/4 280/2/4
f 281/2/4 282/2/4 283/2/4
f 283/2/4 282/2/4 284/2/4
f 285/2/4 286/2/4 287/2/4
f 287/2/4 286/2/4 288/2/4
f 291/2/5 290/2/5 289/2/5
f 292/2/5 290/2/5 291/2/5
f 295/2/5 294/2/5 293/2/5
f 296/2/5 294/2/5 295/2/5
f 300/2/5 298/2/5 297/2/5
f 301/2/5 298/2/5 300/2/5
f 304/2/5 300/2/5 299/2/5
f 304/2/5 302/2/5 301/2/5
f 304/2/5 301/2/5 300/2/5
f 305/2/5 302/2/5 304/2/5
f 307/2/5 304/2/5 303/2/5
f 307/2/5 306/2/5 305/2/5
f 307/2/5 305/2/5 304/2/5
f 308/2/5 306/2/5 307/2/5
f 309/2/5 306/2/5 308/2/5
f 310/2/5 306/2/5 309/2/5
f 311/2/5 309/2/5 308/2/5
f 312/2/5 309/2/5 311/2/5
f 313/2/5 309/2/5 312/2/5
f 314/2/5 309/2/5 313/2/5
f 315/2/5 313/2/5 312/2/5
f 316/2/5 313/2/5 315/2/5
f 317/2/6 318/2/6 319/2/6
f 319/2/6 318/2/6 320/2/6
f 321/2/6 322/2/6 323/2/6
f 323/2/6 322/2/6 324/2/6
f 325/2/6 326/2/6 328/2/6
f 328/2/6 326/2/6 329/2/6
f 327/2/6 328/2/6 332/2/6
f 329/2/6 330/2/6 332/2/6
f 328/2/6 329/2/6 332/2/6
f 332/2/6 330/2/6 333/2/6
f 331/2/6 332/2/6 335/2/6
f 333/2/6 334/2/6 335/2/6
f 332/2/6 333/2/6 335/2/6
f 335/2/6 334/2/6 336/2/6
f 331/2/6 335/2/6 337/2/6
f 337/2/6 335/2/6 338/2/6
f 336/2/6 334/2/6 339/2/6
f 339/2/6 334/2/6 340/2/6
f 331/2/6 337/2/6 341/2/6
f 341/2/6 337/2/6 342/2/6
f 340/2/6 334/2/6 343/2/6
f 343/2/6 334/2/6 344/2/6
f 331/2/6 341/2/6 345/2/6
f 345/2/6 341/2/6 346/2/6
f 344/2/6 334/2/6 347/2/6
f 347/2/6 334/2/6 348/2/6
f 331/2/6 345/2/6 349/2/6
f 349/2/6 345/2/6 350/2/6
f 348/2/6 334/2/6 351/2/6
f 351/2/6 334/2/6 352/2/6
f 331/2/6 349/2/6 353/2/6
f 353/2/6 349/2/6 354/2/6
f 352/2/6 334/2/6 355/2/6
f 355/2/6 334/2/6 356/2/6
f 331/2/6 353/2/6 357/2/6
f 357/2/6 353/2/6 358/2/6
f 356/2/6 334/2/6 359/2/6
f 359/2/6 334/2/6 360/2/6
f 331/2/6 357/2/6 361/2/6
f 360/2/6 334/2/6 366/2/6
f 361/2/6 362/2/6 367/2/6
f 363/2/6 364/2/6 370/2/6
f 370/2/6 364/2/6 371/2/6
f 365/2/6 366/2/6 374/2/6
f 367/2/6 368/2/6 375/2/6
f 371/2/6 372/2/6 376/2/6
f 369/2/6 370/2/6 376/2/6
f 370/2/6 371/2/6 376/2/6
f 376/2/6 372/2/6 377/2/6
f 373/2/6 374/2/6 378/2/6
f 376/2/6 377/2/6 379/2/6
f 377/2/6 378/2/6 379/2/6
f 331/2/6 361/2/6 379/2/6
f 367/2/6 375/2/6 379/2/6
f 375/2/6 376/2/6 379/2/6
f 361/2/6 367/2/6 379/2/6
f 379/2/6 378/2/6 380/2/6
f 378/2/6 374/2/6 381/2/6
f 380/2/6 378/2/6 381/2/6
f 366/2/6 334/2/6 381/2/6
f 374/2/6 366/2/6 381/2/6
f 381/2/6 334/2/6 382/2/6
f 380/2/6 381/2/6 383/2/6
f 383/2/6 381/2/6 384/2/6
f 384/2/6 381/2/6 385/2/6
f 385/2/6 381/2/6 386/2/6
f 384/2/6 385/2/6 387/2/6
f 387/2/6 385/2/6 388/2/6
f 389/1/6 390/1/6 392/1/6
f 392/1/6 390/1/6 393/1/6
f 391/1/6 392/1/6 396/1/6
f 393/1/6 394/1/6 396/1/6
f 392/1/6 393/1/6 396/1/6
f 396/1/6 394/1/6 397/1/6
f 395/1/6 396/1/6 400/1/6
f 397/1/6 398/1/6 400/1/6
f 396/1/6 397/1/6 400/1/6
f 400/1/6 398/1/6 401/1/6
f 399/1/6 400/1/6 404/1/6
f 401/1/6 402/1/6 404/1/6
f 400/1/6 401/1/6 404/1/6
f 404/1/6 402/1/6 405/1/6
f 403/1/6 404/1/6 408/1/6
f 405/1/6 406/1/6 408/1/6
f 404/1/6 405/1/6 408/1/6
f 408/1/6 406/1/6 409/1/6
f 407/1/6 408/1/6 412/1/6
f 409/1/6 410/1/6 412/1/6
f 408/1/6 409/1/6 412/1/6
f 412/1/6 410/1/6 413/1/6
f 411/1/6 412/1/6 415/1/6
f 413/1/6 414/1/6 415/1/6
f 412/1/6 413/1/6 415/1/6
f 415/1/6 414/1/6 416/1/6
f 416/1/6 414/1/6 417/1/6
f 417/1/6 414/1/6 418/1/6
f 418/1/6 414/1/6 419/1/6
f 419/1/6 414/1/6 420/1/6
f 416/1/6 417/1/6 421/1/6
f 421/1/6 417/1/6 422/1/6
f 422/1/6 417/1/6 423/1/6
f 423/1/6 417/1/6 424/1/6
f 418/1/6 419/1/6 425/1/6
f 425/1/6 419/1/6 426/1/6
f 426/1/6 419/1/6 427/1/6
f 427/1/6 419/1/6 428/1/6
f 422/1/6 423/1/6 429/1/6
f 429/1/6 423/1/6 430/1/6
f 426/1/6 427/1/6 431/1/6
f 431/1/6 427/1/6 432/1/6
